<svg width="1200" height="360" viewBox="0 0 1200 360" fill="none" xmlns="http://www.w3.org/2000/svg">
  <rect width="1200" height="360" rx="42" fill="#080B0E"/>
  <path d="M0 0H1200V360H0V0Z" fill="url(#grid)"/>
  <circle cx="168" cy="178" r="92" fill="#101820" stroke="#2D3B45" stroke-width="3"/>
  <path d="M167.5 72L235 110.5V188.5L167.5 228L100 188.5V110.5L167.5 72Z" fill="#121D24" stroke="#70E39F" stroke-width="8" stroke-linejoin="round"/>
  <path d="M167.5 112L200 130.5V169.5L167.5 188L135 169.5V130.5L167.5 112Z" fill="#6BD8FF"/>
  <path d="M100 188.5L167.5 150L235 188.5" stroke="#70E39F" stroke-width="8" stroke-linecap="round" stroke-linejoin="round"/>
  <path d="M167.5 150V228" stroke="#70E39F" stroke-width="8" stroke-linecap="round"/>
  <text x="296" y="218" fill="#EFF5F1" font-family="Inter, Segoe UI, Arial, sans-serif" font-size="108" font-weight="850" letter-spacing="0">Vortex Relay</text>
  <text x="300" y="282" fill="#A9B5BF" font-family="Inter, Segoe UI, Arial, sans-serif" font-size="30" letter-spacing="1">Codex-first Slack + Telegram agent with switchable AI brains</text>
  <path d="M302 82H491" stroke="#70E39F" stroke-width="6" stroke-linecap="round"/>
  <path d="M302 86H407" stroke="#6BD8FF" stroke-width="3" stroke-linecap="round"/>
  <defs>
    <pattern id="grid" width="38" height="38" patternUnits="userSpaceOnUse">
      <path d="M38 0H0V38" stroke="#13202A" stroke-width="1"/>
    </pattern>
  </defs>
</svg>
